<svg xmlns="http://www.w3.org/2000/svg" xmlns:xlink="http://www.w3.org/1999/xlink" version="1.1" width="256" height="256" viewBox="0 0 256 256" xml:space="preserve">

<defs>
</defs>
<g style="stroke: none; stroke-width: 0; stroke-dasharray: none; stroke-linecap: butt; stroke-linejoin: miter; stroke-miterlimit: 10; fill: none; fill-rule: nonzero; opacity: 1;" transform="translate(1.4065934065934016 1.4065934065934016) scale(2.81 2.81)" >
	<path d="M 58.911 7.546 L 16.85 42.07 l 28.019 34.135 l 42.06 -34.524 c 2.415 -1.983 2.766 -5.548 0.784 -7.963 L 66.874 8.329 C 64.892 5.914 61.326 5.563 58.911 7.546 z" style="stroke: none; stroke-width: 1; stroke-dasharray: none; stroke-linecap: butt; stroke-linejoin: miter; stroke-miterlimit: 10; fill: rgb(255,161,255); fill-rule: nonzero; opacity: 1;" transform=" matrix(1 0 0 1 0 0) " stroke-linecap="round" />
	<path d="M 16.292 83.739 h 12.907 l 13.057 -10.718 L 19.464 45.254 L 3.069 58.711 c -2.416 1.983 -2.766 5.548 -0.784 7.963 L 16.292 83.739 z" style="stroke: none; stroke-width: 1; stroke-dasharray: none; stroke-linecap: butt; stroke-linejoin: miter; stroke-miterlimit: 10; fill: rgb(164,236,255); fill-rule: nonzero; opacity: 1;" transform=" matrix(1 0 0 1 0 0) " stroke-linecap="round" />
	<path d="M 1 84.739 c -0.552 0 -1 -0.447 -1 -1 s 0.448 -1 1 -1 l 88 -0.002 c 0.553 0 1 0.447 1 1 s -0.447 1 -1 1 L 1 84.739 z" style="stroke: none; stroke-width: 1; stroke-dasharray: none; stroke-linecap: butt; stroke-linejoin: miter; stroke-miterlimit: 10; fill: rgb(0,0,0); fill-rule: nonzero; opacity: 1;" transform=" matrix(1 0 0 1 0 0) " stroke-linecap="round" />
	<path d="M 44.869 77.205 c -0.033 0 -0.065 -0.002 -0.098 -0.005 c -0.264 -0.026 -0.506 -0.155 -0.675 -0.36 L 16.078 42.705 c -0.351 -0.427 -0.289 -1.057 0.139 -1.407 l 42.06 -34.524 c 1.375 -1.129 3.11 -1.651 4.876 -1.48 c 1.771 0.174 3.366 1.027 4.495 2.402 l 20.839 25.388 c 1.128 1.374 1.653 3.106 1.479 4.876 c -0.174 1.77 -1.027 3.366 -2.401 4.495 L 45.503 76.979 C 45.324 77.125 45.1 77.205 44.869 77.205 z M 18.258 42.209 l 26.75 32.589 l 41.287 -33.89 c 0.962 -0.79 1.559 -1.906 1.681 -3.145 s -0.246 -2.45 -1.035 -3.411 L 66.101 8.964 c -0.789 -0.961 -1.905 -1.559 -3.144 -1.68 c -1.236 -0.127 -2.449 0.245 -3.411 1.035 l 0 0 L 18.258 42.209 z M 58.911 7.546 h 0.01 H 58.911 z" style="stroke: none; stroke-width: 1; stroke-dasharray: none; stroke-linecap: butt; stroke-linejoin: miter; stroke-miterlimit: 10; fill: rgb(0,0,0); fill-rule: nonzero; opacity: 1;" transform=" matrix(1 0 0 1 0 0) " stroke-linecap="round" />
	<path d="M 29.199 84.739 H 16.292 c -0.299 0 -0.583 -0.134 -0.773 -0.365 L 1.512 67.31 c -2.329 -2.838 -1.916 -7.042 0.922 -9.371 L 18.83 44.481 c 0.427 -0.35 1.057 -0.289 1.407 0.139 l 22.792 27.767 c 0.351 0.427 0.289 1.058 -0.139 1.408 L 29.833 84.512 C 29.654 84.659 29.43 84.739 29.199 84.739 z M 16.765 82.739 h 12.076 l 12.008 -9.856 L 19.325 46.661 L 3.703 59.484 c -1.985 1.63 -2.274 4.571 -0.645 6.556 L 16.765 82.739 z" style="stroke: none; stroke-width: 1; stroke-dasharray: none; stroke-linecap: butt; stroke-linejoin: miter; stroke-miterlimit: 10; fill: rgb(0,0,0); fill-rule: nonzero; opacity: 1;" transform=" matrix(1 0 0 1 0 0) " stroke-linecap="round" />
	<path d="M 74.503 35.15 c -0.289 0 -0.576 -0.125 -0.774 -0.366 L 63.21 21.969 c -0.35 -0.427 -0.288 -1.057 0.139 -1.407 c 0.429 -0.351 1.058 -0.288 1.408 0.139 l 10.519 12.815 c 0.35 0.427 0.288 1.057 -0.139 1.407 C 74.95 35.076 74.726 35.15 74.503 35.15 z" style="stroke: none; stroke-width: 1; stroke-dasharray: none; stroke-linecap: butt; stroke-linejoin: miter; stroke-miterlimit: 10; fill: rgb(0,0,0); fill-rule: nonzero; opacity: 1;" transform=" matrix(1 0 0 1 0 0) " stroke-linecap="round" />
</g>
</svg>