<svg xmlns="http://www.w3.org/2000/svg" xmlns:xlink="http://www.w3.org/1999/xlink" version="1.1" width="256" height="256" viewBox="0 0 256 256" xml:space="preserve">

<defs>
</defs>
<g style="stroke: none; stroke-width: 0; stroke-dasharray: none; stroke-linecap: butt; stroke-linejoin: miter; stroke-miterlimit: 10; fill: none; fill-rule: nonzero; opacity: 1;" transform="translate(1.4065934065934016 1.4065934065934016) scale(2.81 2.81)" >
	<path d="M 87.862 38.969 c -1.056 -2.552 -3.979 -3.767 -6.531 -2.709 c -2.552 1.056 -3.765 3.98 -2.709 6.531 C 79.536 45.001 80 47.349 80 49.768 c 0 10.068 -8.191 18.26 -18.26 18.26 H 28.26 c -10.068 0 -18.26 -8.191 -18.26 -18.26 c 0 -10.069 8.191 -18.26 18.26 -18.26 h 28.906 l -0.664 0.479 c -2.239 1.615 -2.746 4.74 -1.131 6.98 c 0.978 1.355 2.508 2.076 4.06 2.076 c 1.014 0 2.036 -0.307 2.921 -0.945 l 13.223 -9.535 c 0.2 -0.145 0.384 -0.307 0.558 -0.477 c 0.04 -0.039 0.078 -0.081 0.117 -0.121 c 0.192 -0.2 0.371 -0.41 0.526 -0.637 c 0.008 -0.011 0.017 -0.021 0.025 -0.032 c 0.157 -0.234 0.287 -0.485 0.403 -0.742 c 0.027 -0.06 0.054 -0.118 0.079 -0.178 c 0.104 -0.257 0.187 -0.522 0.247 -0.795 c 0.012 -0.056 0.02 -0.113 0.031 -0.17 c 0.054 -0.296 0.091 -0.596 0.091 -0.903 s -0.037 -0.607 -0.091 -0.903 c -0.01 -0.057 -0.018 -0.114 -0.031 -0.17 c -0.06 -0.273 -0.143 -0.538 -0.247 -0.795 c -0.025 -0.061 -0.052 -0.119 -0.079 -0.178 c -0.116 -0.257 -0.245 -0.508 -0.403 -0.742 c -0.008 -0.011 -0.017 -0.021 -0.025 -0.032 c -0.155 -0.227 -0.334 -0.437 -0.526 -0.637 c -0.039 -0.041 -0.077 -0.082 -0.117 -0.121 c -0.174 -0.17 -0.358 -0.332 -0.558 -0.477 l -13.223 -9.535 c -2.239 -1.613 -5.364 -1.109 -6.98 1.131 c -1.615 2.24 -1.108 5.365 1.131 6.98 l 0.664 0.479 H 28.26 C 12.677 21.507 0 34.185 0 49.768 c 0 15.582 12.677 28.26 28.26 28.26 h 33.48 C 77.322 78.027 90 65.35 90 49.768 C 90 46.03 89.281 42.397 87.862 38.969 z" style="stroke: none; stroke-width: 1; stroke-dasharray: none; stroke-linecap: butt; stroke-linejoin: miter; stroke-miterlimit: 10; fill: rgb(64,101,255); fill-rule: nonzero; opacity: 1;" transform=" matrix(1 0 0 1 0 0) " stroke-linecap="round" />
</g>
</svg>