<svg xmlns="http://www.w3.org/2000/svg" xmlns:xlink="http://www.w3.org/1999/xlink" version="1.1" width="256" height="256" viewBox="0 0 256 256" xml:space="preserve">

<defs>
</defs>
<g style="stroke: none; stroke-width: 0; stroke-dasharray: none; stroke-linecap: butt; stroke-linejoin: miter; stroke-miterlimit: 10; fill: none; fill-rule: nonzero; opacity: 1;" transform="translate(1.4065934065934016 1.4065934065934016) scale(2.81 2.81)" >
	<path d="M 87.051 72.016 L 33.25 86.59 c -1.406 0.381 -2.855 -0.45 -3.236 -1.857 l -14.575 -53.8 c -0.381 -1.406 0.45 -2.855 1.857 -3.236 l 53.8 -14.575 c 1.406 -0.381 2.855 0.45 3.236 1.857 l 14.575 53.8 C 89.289 70.186 88.457 71.635 87.051 72.016 z" style="stroke: none; stroke-width: 1; stroke-dasharray: none; stroke-linecap: butt; stroke-linejoin: miter; stroke-miterlimit: 10; fill: rgb(119,179,252); fill-rule: nonzero; opacity: 1;" transform=" matrix(1 0 0 1 0 0) " stroke-linecap="round" />
	<path d="M 32.562 87.683 c -1.603 0 -3.075 -1.068 -3.514 -2.688 l -14.575 -53.8 c -0.254 -0.938 -0.127 -1.919 0.356 -2.762 c 0.483 -0.843 1.267 -1.447 2.205 -1.701 l 53.8 -14.575 c 0.938 -0.253 1.918 -0.127 2.762 0.356 c 0.844 0.484 1.447 1.267 1.701 2.205 l 14.574 53.8 c 0.255 0.938 0.128 1.919 -0.355 2.762 c -0.483 0.844 -1.267 1.447 -2.204 1.701 l -53.8 14.575 C 33.195 87.642 32.876 87.683 32.562 87.683 z M 71.789 14.03 c -0.144 0 -0.288 0.019 -0.431 0.058 L 17.558 28.662 c -0.423 0.114 -0.775 0.386 -0.993 0.766 c -0.218 0.379 -0.274 0.821 -0.16 1.244 l 14.575 53.8 c 0.236 0.872 1.133 1.388 2.01 1.154 l 53.8 -14.575 l 0 0 c 0.872 -0.236 1.389 -1.138 1.153 -2.01 L 73.368 15.24 c -0.115 -0.422 -0.387 -0.775 -0.767 -0.993 C 72.351 14.104 72.071 14.03 71.789 14.03 z" style="stroke: none; stroke-width: 1; stroke-dasharray: none; stroke-linecap: butt; stroke-linejoin: miter; stroke-miterlimit: 10; fill: rgb(0,0,0); fill-rule: nonzero; opacity: 1;" transform=" matrix(1 0 0 1 0 0) " stroke-linecap="round" />
	<path d="M 73.076 79.802 l -55.687 -2.434 c -1.456 -0.064 -2.584 -1.295 -2.521 -2.751 l 2.434 -55.687 c 0.064 -1.456 1.295 -2.584 2.751 -2.521 l 55.687 2.434 c 1.456 0.064 2.584 1.295 2.521 2.751 l -2.434 55.687 C 75.763 78.737 74.532 79.866 73.076 79.802 z" style="stroke: none; stroke-width: 1; stroke-dasharray: none; stroke-linecap: butt; stroke-linejoin: miter; stroke-miterlimit: 10; fill: rgb(252,117,213); fill-rule: nonzero; opacity: 1;" transform=" matrix(1 0 0 1 0 0) " stroke-linecap="round" />
	<path d="M 73.195 80.805 c -0.055 0 -0.108 -0.002 -0.163 -0.004 l 0 0 l -55.686 -2.434 c -0.971 -0.042 -1.868 -0.46 -2.524 -1.177 c -0.657 -0.717 -0.995 -1.646 -0.953 -2.617 l 2.434 -55.686 c 0.088 -2.004 1.798 -3.557 3.794 -3.476 l 55.687 2.434 c 0.971 0.042 1.867 0.46 2.523 1.177 c 0.656 0.716 0.994 1.646 0.952 2.616 l -2.434 55.687 c -0.042 0.971 -0.46 1.867 -1.177 2.523 C 74.973 80.469 74.106 80.805 73.195 80.805 z M 73.12 78.803 c 0.853 0.037 1.669 -0.662 1.708 -1.565 l 2.434 -55.686 c 0.02 -0.438 -0.133 -0.856 -0.429 -1.179 s -0.699 -0.511 -1.137 -0.53 L 20.01 17.409 c -0.912 -0.027 -1.669 0.663 -1.709 1.565 l -2.434 55.687 c -0.019 0.437 0.133 0.855 0.429 1.178 c 0.296 0.323 0.7 0.511 1.137 0.53 L 73.12 78.803 z" style="stroke: none; stroke-width: 1; stroke-dasharray: none; stroke-linecap: butt; stroke-linejoin: miter; stroke-miterlimit: 10; fill: rgb(0,0,0); fill-rule: nonzero; opacity: 1;" transform=" matrix(1 0 0 1 0 0) " stroke-linecap="round" />
	<path d="M 55.856 81.53 L 2.973 65.027 c -1.481 -0.462 -2.307 -2.037 -1.845 -3.518 L 17.631 8.626 c 0.462 -1.481 2.037 -2.307 3.518 -1.845 l 52.883 16.503 c 1.481 0.462 2.307 2.037 1.845 3.518 L 59.374 79.685 C 58.912 81.166 57.337 81.992 55.856 81.53 z" style="stroke: none; stroke-width: 1; stroke-dasharray: none; stroke-linecap: butt; stroke-linejoin: miter; stroke-miterlimit: 10; fill: rgb(255,202,66); fill-rule: nonzero; opacity: 1;" transform=" matrix(1 0 0 1 0 0) " stroke-linecap="round" />
	<path d="M 56.69 82.658 c -0.375 0 -0.756 -0.056 -1.132 -0.173 L 2.675 65.982 c -2.005 -0.627 -3.127 -2.768 -2.501 -4.771 L 16.677 8.328 c 0.625 -2.005 2.765 -3.126 4.771 -2.501 l 19.664 6.137 c 0.527 0.165 0.821 0.725 0.657 1.252 c -0.166 0.527 -0.729 0.819 -1.252 0.657 L 20.852 7.735 c -0.462 -0.145 -0.95 -0.1 -1.379 0.125 c -0.428 0.224 -0.743 0.602 -0.887 1.063 L 2.083 61.807 c -0.297 0.952 0.236 1.969 1.188 2.267 l 52.883 16.502 c 0.953 0.301 1.969 -0.235 2.267 -1.188 l 16.502 -52.882 c 0.298 -0.952 -0.235 -1.969 -1.188 -2.266 l -19.664 -6.136 c -0.527 -0.165 -0.821 -0.725 -0.657 -1.252 c 0.165 -0.528 0.721 -0.82 1.253 -0.657 l 19.664 6.136 c 2.005 0.626 3.127 2.766 2.502 4.771 L 60.33 79.983 C 59.82 81.612 58.313 82.658 56.69 82.658 z" style="stroke: none; stroke-width: 1; stroke-dasharray: none; stroke-linecap: butt; stroke-linejoin: miter; stroke-miterlimit: 10; fill: rgb(0,0,0); fill-rule: nonzero; opacity: 1;" transform=" matrix(1 0 0 1 0 0) " stroke-linecap="round" />
	<path d="M 58.549 45.911 c -0.099 0 -0.198 -0.015 -0.298 -0.046 L 21.287 34.33 c -0.527 -0.165 -0.821 -0.725 -0.657 -1.252 c 0.165 -0.528 0.724 -0.822 1.252 -0.657 l 36.964 11.535 c 0.527 0.165 0.821 0.725 0.657 1.252 C 59.37 45.636 58.975 45.911 58.549 45.911 z" style="stroke: none; stroke-width: 1; stroke-dasharray: none; stroke-linecap: butt; stroke-linejoin: miter; stroke-miterlimit: 10; fill: rgb(0,0,0); fill-rule: nonzero; opacity: 1;" transform=" matrix(1 0 0 1 0 0) " stroke-linecap="round" />
	<path d="M 45.768 28.96 c -0.798 0 -1.607 -0.119 -2.408 -0.369 c -2.065 -0.645 -3.756 -2.055 -4.761 -3.971 c -1.005 -1.917 -1.203 -4.109 -0.559 -6.174 l 4.146 -13.284 c 0.165 -0.528 0.725 -0.82 1.252 -0.657 c 0.527 0.165 0.821 0.725 0.657 1.252 L 39.95 19.042 c -1.002 3.211 0.795 6.638 4.006 7.64 c 3.209 1.001 6.639 -0.795 7.64 -4.006 l 4.295 -13.764 c 0.58 -1.858 -0.46 -3.841 -2.317 -4.421 c -0.969 -0.302 -1.996 -0.21 -2.896 0.262 c -0.898 0.471 -1.56 1.264 -1.861 2.233 l -2.397 7.681 c -0.165 0.527 -0.729 0.818 -1.252 0.657 c -0.527 -0.165 -0.821 -0.725 -0.657 -1.252 l 2.396 -7.681 c 0.462 -1.479 1.471 -2.689 2.843 -3.409 c 1.373 -0.719 2.941 -0.861 4.421 -0.4 c 2.91 0.909 4.539 4.016 3.632 6.926 l -4.295 13.764 C 52.425 26.735 49.219 28.959 45.768 28.96 z" style="stroke: none; stroke-width: 1; stroke-dasharray: none; stroke-linecap: butt; stroke-linejoin: miter; stroke-miterlimit: 10; fill: rgb(0,0,0); fill-rule: nonzero; opacity: 1;" transform=" matrix(1 0 0 1 0 0) " stroke-linecap="round" />
	<path d="M 50.045 16.798 c -0.099 0 -0.199 -0.015 -0.298 -0.046 c -0.527 -0.165 -0.821 -0.725 -0.657 -1.252 l 2.347 -7.52 c 0.164 -0.528 0.728 -0.822 1.253 -0.657 c 0.527 0.165 0.821 0.725 0.657 1.252 L 51 16.096 C 50.866 16.524 50.471 16.798 50.045 16.798 z" style="stroke: none; stroke-width: 1; stroke-dasharray: none; stroke-linecap: butt; stroke-linejoin: miter; stroke-miterlimit: 10; fill: rgb(0,0,0); fill-rule: nonzero; opacity: 1;" transform=" matrix(1 0 0 1 0 0) " stroke-linecap="round" />
	<path d="M 55.164 56.758 c -0.099 0 -0.198 -0.015 -0.298 -0.045 L 17.902 45.177 c -0.527 -0.165 -0.821 -0.725 -0.657 -1.252 c 0.165 -0.528 0.723 -0.821 1.252 -0.657 l 36.964 11.535 c 0.527 0.165 0.821 0.726 0.657 1.253 C 55.985 56.483 55.59 56.758 55.164 56.758 z" style="stroke: none; stroke-width: 1; stroke-dasharray: none; stroke-linecap: butt; stroke-linejoin: miter; stroke-miterlimit: 10; fill: rgb(0,0,0); fill-rule: nonzero; opacity: 1;" transform=" matrix(1 0 0 1 0 0) " stroke-linecap="round" />
	<path d="M 34.733 62.286 c -0.099 0 -0.199 -0.015 -0.298 -0.045 l -19.918 -6.216 c -0.527 -0.165 -0.821 -0.726 -0.657 -1.253 s 0.727 -0.82 1.252 -0.657 l 19.918 6.216 c 0.527 0.165 0.821 0.726 0.657 1.253 C 35.554 62.012 35.159 62.286 34.733 62.286 z" style="stroke: none; stroke-width: 1; stroke-dasharray: none; stroke-linecap: butt; stroke-linejoin: miter; stroke-miterlimit: 10; fill: rgb(0,0,0); fill-rule: nonzero; opacity: 1;" transform=" matrix(1 0 0 1 0 0) " stroke-linecap="round" />
</g>
</svg>