<svg xmlns="http://www.w3.org/2000/svg" xmlns:xlink="http://www.w3.org/1999/xlink" version="1.1" width="256" height="256" viewBox="0 0 256 256" xml:space="preserve">

<defs>
</defs>
<g style="stroke: none; stroke-width: 0; stroke-dasharray: none; stroke-linecap: butt; stroke-linejoin: miter; stroke-miterlimit: 10; fill: none; fill-rule: nonzero; opacity: 1;" transform="translate(1.4065934065934016 1.4065934065934016) scale(2.81 2.81)" >
	<path d="M 14.245 42.361 L 14.245 42.361 c 4.15 4.165 10.892 4.171 15.05 0.014 l 5.077 -5.077 l 0 41.069 c 0 5.872 4.76 10.632 10.632 10.632 h 0 h 0 c 5.872 0 10.632 -4.76 10.632 -10.632 V 37.299 l 5.063 5.063 c 4.152 4.152 10.884 4.152 15.036 0 l 0 0 c 4.152 -4.152 4.152 -10.884 0 -15.036 L 52.521 4.113 c -4.152 -4.152 -10.884 -4.152 -15.036 0 L 14.259 27.34 C 10.113 31.486 10.106 38.207 14.245 42.361 z" style="stroke: none; stroke-width: 1; stroke-dasharray: none; stroke-linecap: butt; stroke-linejoin: miter; stroke-miterlimit: 10; fill: rgb(0,214,173); fill-rule: nonzero; opacity: 1;" transform=" matrix(1 0 0 1 0 0) " stroke-linecap="round" />
	<path d="M 79.847 34.843 c 0 3.107 -1.21 6.028 -3.407 8.226 c -2.196 2.197 -5.117 3.407 -8.225 3.407 c -3.106 0 -6.027 -1.21 -8.225 -3.407 l -3.355 -3.356 v 38.655 c 0 6.414 -5.218 11.632 -11.632 11.632 c -6.414 0 -11.632 -5.218 -11.632 -11.632 V 39.712 l -3.37 3.37 c -2.2 2.2 -5.124 3.41 -8.235 3.407 c -3.111 -0.002 -6.034 -1.218 -8.23 -3.421 l 0 0 c -4.517 -4.534 -4.512 -11.906 0.016 -16.435 L 36.778 3.407 c 2.197 -2.197 5.118 -3.407 8.225 -3.407 s 6.028 1.21 8.225 3.407 L 76.44 26.619 C 78.637 28.816 79.847 31.737 79.847 34.843 z M 35.372 78.368 c 0 5.311 4.321 9.632 9.631 9.632 c 5.311 0 9.632 -4.321 9.632 -9.632 V 37.298 c 0 -0.404 0.244 -0.77 0.617 -0.924 c 0.374 -0.155 0.804 -0.069 1.09 0.217 l 5.063 5.063 c 1.819 1.819 4.238 2.821 6.811 2.821 c 2.573 0 4.991 -1.001 6.811 -2.821 c 3.755 -3.755 3.757 -9.865 0 -13.622 L 51.814 4.821 c -1.819 -1.819 -4.238 -2.821 -6.811 -2.821 s -4.991 1.002 -6.811 2.821 L 14.966 28.047 c -3.749 3.75 -3.754 9.854 -0.013 13.608 c 1.818 1.825 4.238 2.831 6.815 2.833 c 2.576 0.002 4.998 -1 6.819 -2.821 l 5.077 -5.077 c 0.286 -0.286 0.716 -0.372 1.09 -0.217 c 0.374 0.154 0.617 0.52 0.617 0.924 V 78.368 z" style="stroke: none; stroke-width: 1; stroke-dasharray: none; stroke-linecap: butt; stroke-linejoin: miter; stroke-miterlimit: 10; fill: rgb(0,0,0); fill-rule: nonzero; opacity: 1;" transform=" matrix(1 0 0 1 0 0) " stroke-linecap="round" />
</g>
</svg>